<?xml version="1.0" standalone="no"?>
<!DOCTYPE svg PUBLIC "-//W3C//DTD SVG 20010904//EN"
 "http://www.w3.org/TR/2001/REC-SVG-20010904/DTD/svg10.dtd">
<svg version="1.0" xmlns="http://www.w3.org/2000/svg"
 width="1200.000000pt" height="1200.000000pt" viewBox="0 0 1200.000000 1200.000000"
 preserveAspectRatio="xMidYMid meet">
<metadata>
Created by potrace 1.14, written by Peter Selinger 2001-2017
</metadata>
<g transform="translate(0.000000,1200.000000) scale(0.100000,-0.100000)"
fill="#000000" stroke="none">
<path d="M7720 11215 c-60 -15 -70 -17 -210 -39 -109 -18 -167 -25 -230 -30
-25 -2 -74 -7 -110 -10 -171 -15 -270 -19 -800 -31 -288 -6 -380 -11 -620 -31
-49 -4 -152 -16 -250 -30 -19 -3 -104 -21 -189 -40 -584 -130 -1023 -407
-1307 -825 -99 -146 -162 -285 -204 -447 -41 -162 -49 -246 -45 -462 2 -107 6
-206 9 -220 2 -14 7 -52 11 -85 3 -33 8 -69 10 -80 3 -11 7 -31 9 -45 12 -73
19 -113 36 -195 10 -49 21 -103 24 -120 12 -66 26 -142 31 -175 5 -32 31 -175
41 -225 4 -19 14 -73 20 -107 1 -10 -8 -21 -27 -28 -40 -17 -134 -121 -166
-183 -14 -29 -32 -73 -39 -100 -13 -49 -12 -227 1 -282 19 -80 61 -196 92
-250 44 -78 88 -172 124 -265 49 -125 91 -211 124 -251 33 -41 98 -79 138 -81
21 -1 37 -6 38 -12 2 -32 50 -171 94 -276 59 -141 166 -324 278 -480 18 -24
28 -55 33 -100 14 -111 7 -405 -11 -498 -1 -9 -6 -53 -10 -97 -4 -44 -9 -89
-11 -100 -2 -11 -7 -45 -10 -75 -3 -30 -7 -66 -9 -80 -2 -14 -6 -50 -10 -80
-9 -83 -17 -135 -18 -136 -1 0 -40 -21 -87 -46 -135 -72 -201 -109 -269 -150
-34 -21 -65 -38 -67 -38 -2 0 -86 -48 -187 -107 -100 -59 -204 -119 -232 -135
-27 -16 -113 -67 -189 -113 -77 -47 -141 -85 -143 -85 -2 0 -31 -18 -64 -40
-33 -22 -62 -40 -64 -40 -2 0 -84 -51 -182 -113 -277 -177 -426 -281 -489
-346 -32 -32 -34 -33 -239 -71 -27 -5 -135 -25 -240 -45 -104 -19 -205 -38
-224 -41 -18 -3 -43 -8 -55 -10 -11 -2 -70 -13 -131 -25 -60 -12 -114 -22
-120 -23 -5 -1 -37 -8 -70 -15 -33 -7 -71 -23 -85 -35 -14 -12 -50 -30 -80
-41 -99 -33 -182 -103 -256 -216 -23 -36 -51 -86 -60 -110 -9 -24 -21 -49 -26
-55 -5 -7 -10 -20 -12 -30 -2 -11 -11 -37 -20 -59 -8 -22 -32 -96 -51 -165
-44 -154 -115 -410 -120 -430 -2 -8 -22 -86 -44 -172 -23 -87 -53 -206 -67
-265 -13 -60 -27 -117 -30 -128 -2 -11 -7 -36 -10 -55 -3 -19 -8 -38 -9 -41
-2 -3 -11 -39 -20 -80 -21 -98 -122 -587 -128 -619 -3 -14 -23 -117 -46 -230
-22 -113 -43 -218 -46 -235 -5 -33 -12 -67 -20 -105 -7 -32 -14 -67 -20 -102
l-5 -28 5556 0 5556 0 -7 63 c-4 34 -9 73 -10 87 -1 14 -5 39 -8 55 -3 17 -9
57 -12 90 -3 33 -8 67 -10 75 -2 8 -6 47 -10 85 -3 39 -8 81 -10 95 -2 14 -6
50 -9 80 -3 30 -11 100 -17 155 -12 106 -13 121 -23 255 -3 47 -8 96 -11 110
-2 14 -7 68 -10 120 -4 52 -8 111 -10 130 -2 19 -6 76 -9 125 -6 88 -12 156
-22 245 -3 25 -7 65 -10 90 -2 25 -6 59 -9 75 -2 17 -7 53 -10 80 -8 63 -50
262 -70 335 -9 30 -17 62 -19 70 -19 75 -86 235 -146 349 -79 149 -230 281
-425 372 -98 46 -310 118 -397 134 -10 2 -21 6 -26 8 -4 3 -24 8 -44 11 -21 3
-59 11 -85 17 -47 10 -166 31 -248 44 -104 15 -184 26 -225 31 -25 2 -60 6
-79 9 -35 5 -131 16 -166 19 -11 0 -146 102 -300 226 -154 123 -316 253 -360
288 -44 36 -96 77 -115 92 -19 16 -93 75 -165 132 -71 57 -177 140 -235 185
-58 45 -152 119 -210 164 -57 45 -149 115 -205 156 -55 40 -107 79 -115 86 -8
7 -39 27 -67 46 -45 28 -53 38 -54 65 0 17 -2 40 -4 51 -4 24 -18 152 -20 180
-1 11 -5 46 -9 79 -27 204 -35 375 -23 496 15 144 16 148 81 243 74 108 167
272 162 287 0 3 9 19 20 35 20 28 117 285 126 330 2 15 14 21 45 26 57 7 114
48 152 108 18 27 61 119 95 203 67 164 97 227 128 271 25 35 75 173 92 253 17
81 20 217 6 279 -24 108 -96 217 -185 281 -33 25 -34 17 25 174 70 184 144
406 165 496 17 72 37 164 40 189 3 17 7 41 10 54 12 59 19 178 19 316 0 220
-8 278 -75 555 -17 69 -32 132 -34 140 -2 8 -11 44 -20 80 -9 36 -19 72 -20
80 -2 8 -4 15 -5 15 -1 0 -3 8 -5 17 -2 9 -26 97 -54 195 -146 513 -283 848
-377 922 -30 24 -38 24 -114 6z"/>
</g>
</svg>
